<svg xmlns="http://www.w3.org/2000/svg" viewBox="0 -0.5 139 30" shape-rendering="crispEdges">
<metadata>Made with Pixels to Svg https://codepen.io/shshaw/pen/XbxvNj</metadata>
<path stroke="#00abf4" d="M2 3h16M2 4h16M2 5h16M2 6h16M2 7h16M2 8h16M2 9h7M12 9h6M2 10h7M12 10h6M2 11h16M2 12h16M2 13h16M2 14h16M2 15h16M2 16h16M2 17h16M2 18h7M2 19h7M2 20h7M2 21h7M2 22h7M2 23h7M2 24h7M2 25h7M2 26h7M2 27h7M2 28h7" />
<path stroke="#ff9900" d="M20 3h6M20 4h6M20 5h6M20 6h6M20 7h6M20 8h6M20 9h6M20 10h6M20 11h6M20 12h6M20 13h6M20 14h6M20 15h6M20 16h6M20 17h6M20 18h6M20 19h6M20 20h6M20 21h6M20 22h6M20 23h6M20 24h6M20 25h6M20 26h6M20 27h6M20 28h6" />
<path stroke="#d60000" d="M28 3h6M44 3h6M28 4h6M44 4h6M28 5h8M42 5h8M28 6h8M42 6h8M28 7h10M42 7h8M28 8h10M40 8h10M30 9h8M40 9h8M30 10h8M40 10h8M32 11h6M40 11h6M32 12h14M34 13h12M34 14h9M34 15h9M34 16h9M32 17h14M32 18h6M40 18h6M32 19h6M40 19h6M30 20h8M40 20h8M30 21h8M40 21h8M30 22h8M40 22h8M28 23h8M42 23h8M28 24h8M42 24h8M28 25h8M42 25h8M28 26h6M44 26h6M28 27h6M44 27h6M28 28h6M44 28h6" />
<path stroke="#9f9f9f" d="M52 3h12M52 4h12M52 5h12M52 6h12M52 7h12M52 8h12M52 9h6M52 10h6M52 11h6M52 12h6M52 13h12M52 14h12M52 15h12M52 16h12M52 17h12M52 18h12M52 19h6M52 20h6M52 21h6M52 22h6M52 23h12M52 24h12M52 25h12M52 26h12M52 27h12M52 28h12" />
<path stroke="#131e7f" d="M66 3h6M66 4h6M66 5h6M66 6h6M66 7h6M66 8h6M66 9h6M66 10h6M66 11h6M66 12h6M66 13h6M66 14h6M66 15h6M66 16h6M66 17h6M66 18h6M66 19h6M66 20h6M66 21h6M66 22h6M66 23h13M66 24h13M66 25h13M66 26h13M66 27h13M66 28h13" />
<path stroke="#77ff00" d="M85 3h15M85 4h15M85 5h15M85 6h15M85 7h15M85 8h15M85 9h6M94 9h6M85 10h6M94 10h6M85 11h6M94 11h6M85 12h15M85 13h15M85 14h15M85 15h15M85 16h15M85 17h15M85 18h6M94 18h6M85 19h6M94 19h6M85 20h6M94 20h6M85 21h6M94 21h6M85 22h6M94 22h6M85 23h6M94 23h6M85 24h6M94 24h6M85 25h6M94 25h6M85 26h6M94 26h6M85 27h6M94 27h6M85 28h6M94 28h6" />
<path stroke="#ff7000" d="M102 3h14M102 4h14M102 5h14M102 6h14M102 7h14M102 8h14M102 9h6M110 9h6M102 10h6M110 10h6M102 11h14M102 12h14M102 13h14M102 14h10M102 15h10M102 16h14M102 17h6M110 17h6M102 18h6M110 18h6M102 19h6M110 19h6M102 20h6M110 20h6M102 21h6M110 21h6M102 22h6M110 22h6M102 23h6M110 23h6M102 24h6M110 24h6M102 25h6M110 25h6M102 26h6M110 26h6M102 27h6M110 27h6M102 28h6M110 28h6" />
<path stroke="#1b1b1b" d="M118 3h18M118 4h18M118 5h18M118 6h18M118 7h18M118 8h18M124 9h6M124 10h6M124 11h6M124 12h6M124 13h6M124 14h6M124 15h6M124 16h6M124 17h6M124 18h6M124 19h6M124 20h6M124 21h6M124 22h6M124 23h6M124 24h6M124 25h6M124 26h6M124 27h6M124 28h6" />
</svg>